{"title":"Die Hard 1 Hindi Dubbed","uid":5259223,"size":545472599,"categoryP":"video","categoryS":"movies","magnet":"?xt=urn:btih:b80fe5099da4ce1df0935357a5d74b5e95da3914&amp;dn=Die+Hard+1+Hindi+Dubbed&amp;tr=udp%3A%2F%2Ftracker.openbittorrent.com%3A80&amp;tr=udp%3A%2F%2Fopen.demonii.com%3A1337&amp;tr=udp%3A%2F%2Ftracker.coppersurfer.tk%3A6969&amp;tr=udp%3A%2F%2Fexodus.desync.com%3A6969","seeders":1,"leechers":0,"uploader":"autojack","files":5,"time":1262682738,"description":"Title - Die Hard 1988 \n\nCast - Bruce Willis,Alan Rickman,Bonnie Bedelia,Alexander Godunov,Reginald VelJohnson\n\nIMBD - 8.3/10 [Rating]\n\nGenre-Action | Crime | Drama | Thriller \n\nPlot - New York City Detective John McClane has just arrived in Los Angeles to spend Christmas with his wife. Unfortunatly, it is not going to be a Merry Christmas for everyone. A group of terrorists, led by Hans Gruber is holding everyone in the Nakatomi Plaza building hostage. With no way of anyone getting in or out, it's up to McClane to stop them all. All 12! \n\nINFO-\n\nGeneral-\n\nFormat                           : AVI\nFormat/Info                      : Audio Video Interleave\nFile size                        : 516 MiB\nDuration                         : 2h 1mn\nOverall bit rate                 : 595 Kbps\nWriting library                  : MPlayer\n\nVideo-\n\nID                               : 0\nFormat                           : MPEG-4 Visual\nFormat profile                   : Simple@L1\nFormat settings, BVOP            : No\nFormat settings, QPel            : No\nFormat settings, GMC             : No warppoints\nFormat settings, Matrix          : Default (H.263)\nCodec ID                         : DX50\nCodec ID/Hint                    : DivX 5\nDuration                         : 2h 1mn\nBit rate                         : 430 Kbps\nWidth                            : 656 pixels\nHeight                           : 288 pixels\nDisplay aspect ratio             : 2.25:1\nFrame rate                       : 25.000 fps\nResolution                       : 8 bits\nColorimetry                      : 4:2:0\nScan type                        : Interlaced\nScan order                       : Top Field First\nStream size                      : 373 MiB (72%)\nWriting library                  : Lavc52.0.0\n\nAudio-\n\nID                               : 1\nFormat                           : MPEG Audio\nFormat version                   : Version 1\nFormat profile                   : Layer 3\nFormat_Settings_Mode             : Joint stereo\nFormat_Settings_ModeExtension    : MS Stereo\nCodec ID                         : 55\nCodec ID/Hint                    : MP3\nDuration                         : 2h 1mn\nBit rate mode                    : Constant\nBit rate                         : 160 Kbps\nChannel(s)                       : 2 channels\nSampling rate                    : 44.1 KHz\nStream size                      : 139 MiB (27%)\nAlignment                        : Split accross interleaves\nInterleave, duration             : 500 ms (12.50 video frames)\nInterleave, preload duration     : 500 ms\n\nTrackers-\nhttp://tracker.prq.to/announce &lt;a href=&quot;\nhttp://tracker.openbittorrent.com/announce&quot; rel=&quot;nofollow&quot; target=&quot;_NEW&quot;&gt;\nhttp://tracker.openbittorrent.com/announce&lt;/a&gt; &lt;a href=&quot;\nhttp://tracker.publicbt.com/announce&quot; rel=&quot;nofollow&quot; target=&quot;_NEW&quot;&gt;\nhttp://tracker.publicbt.com/announce&lt;/a&gt;\n\n\nWatch Sample and COMMENT PLEASE.\n\nSeed Xtremely :)\n","torrent":{"xt":"urn:btih:b80fe5099da4ce1df0935357a5d74b5e95da3914","amp;dn":"Die+Hard+1+Hindi+Dubbed","amp;tr":["udp%3A%2F%2Ftracker.openbittorrent.com%3A80","udp%3A%2F%2Fopen.demonii.com%3A1337","udp%3A%2F%2Ftracker.coppersurfer.tk%3A6969","udp%3A%2F%2Fexodus.desync.com%3A6969"],"infoHash":"b80fe5099da4ce1df0935357a5d74b5e95da3914","infoHashBuffer":{"type":"Buffer","data":[184,15,229,9,157,164,206,29,240,147,83,87,165,215,75,94,149,218,57,20]},"announce":[],"urlList":[]}}